# xmcd
# Copyright (C) 1995-1998 Ti Kan
#
# Track frame offsets:
#       150
#       12105
#       12948
#       13603
#       14317
#       15040
#       15738
#
# Disc length: 215 seconds
#
# Revision: 0
# Processed by: cddbd v1.5.1PL0 Copyright (c) Steve Scherf et al.
# Submitted via: CD-Transfer v1.0
#
DISCID=3500d507
DTITLE=Stetler, Kent - 
DYEAR=05
DGENRE=
TTITLE0=Schlaflos
TTITLE1=Id1
TTITLE2=Id2
TTITLE3=Id3
TTITLE4=Id4
TTITLE5=Id5
TTITLE6=Id6
EXTD=
EXTT0=
EXTT1=
EXTT2=
EXTT3=
EXTT4=
EXTT5=
EXTT6=
PLAYORDER=
